<svg width="63" height="54" fill="none" xmlns="http://www.w3.org/2000/svg"><path d="M52.635 6.905h3.745a2 2 0 011.993 1.835l3.428 41.267a2 2 0 01-1.993 2.166H30.991M10.675 6.905H6.482a2 2 0 00-1.994 1.84L1.174 50.013a2 2 0 001.993 2.16h27.824" stroke="#198754" stroke-width="1.5" stroke-miterlimit="10"/><path d="M11.06 40.453a.25.25 0 00-.405-.197l-4.27 3.354a.25.25 0 000 .393l4.27 3.356-.438.556.438-.556a.25.25 0 00.404-.196v-6.71zm40.862 0a.25.25 0 01.405-.197l4.27 3.354a.25.25 0 010 .393l-4.27 3.356.437.556-.437-.556a.25.25 0 01-.405-.196v-6.71zM32.795 3.074a2 2 0 00-1.788 1.988v25.663a2 2 0 001.822 1.992l17.295 1.547a2 2 0 002.178-1.992V3.224a2 2 0 00-2.211-1.989L32.795 3.074zm-3.603-.354a2 2 0 011.815 1.991v26.001a2 2 0 01-1.811 1.991l-16.328 1.548a2 2 0 01-2.188-1.99V3.193a2 2 0 012.185-1.991L29.192 2.72z" stroke="#198754" stroke-width="1.5" stroke-miterlimit="10"/><path d="M35.99 7.888l11.996-1.476M35.99 12.81l11.996-1.477M26.992 13.3l-11.996-1.476m11.996-3.443L14.996 6.905m6.901 10.641l-6.901-.8m6.902 5.721l-6.902-.801m25.992 5.724l6.901-.804M35.99 17.73l11.996-1.476M35.99 22.65l11.996-1.476" stroke="#198754" stroke-width="1.5" stroke-miterlimit="10" stroke-linecap="round"/><path d="M38.613 38.75c0 .257-.761 1.156-1.142 1.926-.11.224-.158 1.051-.167 2.696H27.191V41.64a2 2 0 00-.31-1.07l-5.782-9.138-.436-.782c-.627-1.123.655-2.343 1.746-1.662.14.088.262.203.357.338l1.846 2.614c.563.797 1.817.399 1.817-.577V21.017a1.523 1.523 0 013.046 0v5.777a1.523 1.523 0 113.046 0v1.155a1.523 1.523 0 013.046 0v1.54a1.523 1.523 0 013.046 0v9.261z" fill="#FEFEFE"/><path d="M37.47 53c-.08-2.535-.181-6.745-.166-9.628M27.191 53v-9.628m0 0V41.64a2 2 0 00-.31-1.07l-5.782-9.138-.436-.782c-.627-1.123.655-2.343 1.746-1.662v0c.14.088.262.203.357.338l1.846 2.614c.563.797 1.817.399 1.817-.577V21.017c0-.841.682-1.523 1.523-1.523v0c.841 0 1.523.682 1.523 1.523v11.186-5.41c0-.84.682-1.522 1.523-1.522v0c.841 0 1.523.682 1.523 1.523v5.41-4.255c0-.84.682-1.523 1.523-1.523v0c.841 0 1.523.682 1.523 1.523v4.254-2.713c0-.841.682-1.523 1.523-1.523v0c.841 0 1.523.68 1.523 1.522v9.261c0 .257-.761 1.156-1.142 1.926-.11.224-.158 1.051-.167 2.696m-10.113 0h10.113" stroke="#198754" stroke-width="1.5"/></svg>