<svg width="57" height="56" fill="none" xmlns="http://www.w3.org/2000/svg"><path d="M21.914 6.758H3a2 2 0 00-2 2v34.734a2 2 0 002 2h50.9a2 2 0 002-2V8.758a2 2 0 00-2-2H34.986" stroke="#198754" stroke-width="1.5" stroke-miterlimit="10"/><path d="M32.25 14.53h10.139a2 2 0 012 2v20.3a2 2 0 01-2 2H30.45a2 2 0 01-2-2V23.16" stroke="#198754" stroke-width="1.5" stroke-miterlimit="10"/><path d="M32.877 38.83h13.94a2 2 0 002-2v-17.6a2 2 0 00-2-2H45.23m-20.322 21.6H10.084a2 2 0 01-2-2v-17.6a2 2 0 012-2h1.692" stroke="#198754" stroke-width="1.5" stroke-miterlimit="10"/><path d="M24.465 14.53h-9.954a2 2 0 00-2 2v20.3a2 2 0 002 2H26.45a2 2 0 002-2V23.16M55.9 38.879h-54" stroke="#198754" stroke-width="1.5" stroke-miterlimit="10"/><path d="M37.305 23.53h3.911m-25.163 0h3.911m12.913 3.6h8.1m-24.924 0h8.1m8.724 3.6h8.1m-24.924 0h8.1m-8.1 3.6h8.1m8.724 0h8.1" stroke="#198754" stroke-width="1.5" stroke-miterlimit="10" stroke-linecap="round"/><path d="M22.5 45.852s.468 3.514-.52 4.91a11.76 11.76 0 01-1.256 1.508c-.332.333-.553.776-.553 1.245v0c0 .82.665 1.485 1.486 1.485h13.585c.821 0 1.486-.665 1.486-1.486v0c0-.469-.22-.912-.55-1.243a11.835 11.835 0 01-1.258-1.51c-.988-1.393-.52-4.909-.52-4.909m-1.99-25.957h-7.92a1.89 1.89 0 000 3.779h7.92a1.89 1.89 0 100-3.78z" stroke="#198754" stroke-width="1.5" stroke-miterlimit="10"/><path d="M31.083 17.06h-5.265a1.417 1.417 0 000 2.835h5.265a1.417 1.417 0 000-2.834z" stroke="#198754" stroke-width="1.5" stroke-miterlimit="10"/><path d="M25.63 18.005c-.302-.979-.313-2.353-1.117-3.598-.161-.25-.64-.884-.795-1.088a3.105 3.105 0 00-.101-.125c-.39-.462-2.802-3.531-1.57-7.203.94-2.798 3.165-4.797 6.076-4.985.13-.01.392-.007.524 0 2.912.16 5.266 2.184 6.206 4.985 1.232 3.672-1.18 6.74-1.57 7.203a3.197 3.197 0 00-.1.125c-.156.204-.635.837-.796 1.088-.803 1.245-.812 2.622-1.117 3.598" stroke="#198754" stroke-width="1.5" stroke-miterlimit="10"/><path d="M25.84 8.56l.888 2.393m1.999-2.393l.889 2.393m2-2.393l.888 2.393" stroke="#198754" stroke-width="2" stroke-miterlimit="10" stroke-linecap="round"/></svg>