<svg width="55" height="56" fill="none" xmlns="http://www.w3.org/2000/svg"><path d="M23.1 16.865a2 2 0 01.604 1.433v23.731a2 2 0 01-2 2H2.907a2 2 0 01-2-2V13.471a2 2 0 012-2h13.846a2 2 0 011.396.568l4.952 4.826zM4.39 19.29h10.522M4.39 25.387h15.783M4.39 31.483h15.783M4.39 37.58h15.783" stroke="#198754" stroke-width="1.5" stroke-miterlimit="10"/><path d="M16.69 11.451v4.86a2 2 0 002 2h5.014m13.784 30.592h-4.226a1 1 0 01-1-1V8.097a1 1 0 011-1h4.226M27.92 28.014h9.277M52.294 1H42.101a2 2 0 00-2 2v8.194a2 2 0 002 2h8.193a2 2 0 002-2V5.79m0 16.113H42.101a2 2 0 00-2 2v8.194a2 2 0 002 2h8.193a2 2 0 002-2v-5.403" stroke="#198754" stroke-width="1.5" stroke-miterlimit="10"/><path d="M46.198 27.999l1.489 1.753a1 1 0 001.498.03l4.851-5.265m-1.742 18.29H42.101a2 2 0 00-2 2V53a2 2 0 002 2h8.193a2 2 0 002-2v-5.403" stroke="#198754" stroke-width="1.5" stroke-miterlimit="10"/><path d="M46.198 48.9l1.489 1.754a1 1 0 001.498.03l4.851-5.265M46.198 7.095l1.489 1.754a1 1 0 001.498.03l4.851-5.266" stroke="#198754" stroke-width="1.5" stroke-miterlimit="10"/></svg>