<svg width="60" height="53" fill="none" xmlns="http://www.w3.org/2000/svg"><g stroke="#198754" stroke-width="1.5" stroke-miterlimit="10"><path d="M19.684 15.019v1.518c0 .54-.944.776-1.436.998a.757.757 0 00-.168.106c-.692.567-1.49 4.811 1.4 6.323a.62.62 0 01.288.301c.603 1.415 4.413 9.777 10.23 9.777"/><path d="M40.31 15.019v1.518c0 .54.944.776 1.436.998.057.026.113.06.169.106.691.567 1.489 4.811-1.401 6.323a.614.614 0 00-.287.301c-.603 1.415-4.414 9.777-10.23 9.777"/><path d="M40.203 8.563l.952 5.76a.562.562 0 01-.587.65c-1.354-.078-4.294-.21-5.43.045-1.238.279-3.44 1.482-4.711 2.19a.555.555 0 01-.546-.002c-1.248-.71-3.402-1.91-4.64-2.188-1.135-.255-4.075-.123-5.43-.044a.562.562 0 01-.587-.651l.952-5.76"/><path d="M30.461 6.856l5.077-1.739" stroke-linecap="round"/><path d="M29.918 1.007c.129-.05.27-.05.4 0l13.304 5.1a.556.556 0 01.004 1.037L30.372 12.33a.555.555 0 01-.405 0l-13.27-5.19a.556.556 0 01.003-1.035l13.218-5.1z"/><path d="M38.025 35.418l-7.503 3.833c-.316.16-.69.162-1.006.002l-7.602-3.835" stroke-linecap="round"/><path d="M36.617 30.684c.63.19 9.042 4.427 11.615 6.87 4.291 4.07 3.516 11.893 3.185 14.067a.533.533 0 01-.534.449H9.117a.533.533 0 01-.535-.45c-.33-2.172-1.106-9.996 3.186-14.066 2.574-2.443 10.985-6.68 11.615-6.87m-8.144.406c-2.053-1.782-3.069-4.372-3.34-5.153a.668.668 0 00-.292-.348c-1.938-1.167-1.838-4.44-1.433-5.462.078-.199.173-.423.15-.635l-.317-2.89a.448.448 0 01.001-.12c.102-.67 1.288-6.969 10.054-7.481"/><path d="M8.357 46.604l-6.696.062a.532.532 0 01-.54-.453C.86 44.359.34 38.322 3.609 35.152c1.999-1.937 9.513-5.689 10.003-5.84m31.583 1.778c2.052-1.782 3.068-4.372 3.34-5.153a.668.668 0 01.292-.348c1.938-1.167 1.838-4.44 1.433-5.462-.079-.199-.173-.423-.15-.635l.316-2.89a.448.448 0 000-.12c-.102-.67-1.288-6.969-10.054-7.481m11.27 37.666l6.697.061a.532.532 0 00.539-.452c.263-1.854.782-7.892-2.486-11.061-2-1.938-9.057-5.603-9.547-5.755"/></g></svg>