<svg width="67" height="67" fill="none" xmlns="http://www.w3.org/2000/svg"><path fill-rule="evenodd" clip-rule="evenodd" d="M8.508 28.94c0-4.65 3.808-8.42 8.506-8.42h37.613a2 2 0 012 2v1.614a2 2 0 01-2 2h-2.01v-1.605h.4l.245-.002 1.76.002v-2.405l-38.008.168c-3.709 0-6.902 2.977-6.902 6.648 0 3.672 3.193 6.817 6.902 6.817h38.009v-2.406l-1.604.005-.802.011v-1.62h2.01a2 2 0 012 2v1.614a2 2 0 01-2 2H17.014c-4.698 0-8.506-3.77-8.506-8.42z" fill="#198754"/><path fill-rule="evenodd" clip-rule="evenodd" d="M51.815 26.134H16.528c-1.236 0-2.406 1.583-2.406 2.806 0 1.224 1.17 2.807 2.406 2.807h35.287v-5.613zm-35.287-1.605c-2.225 0-4.01 2.209-4.01 4.411 0 2.203 1.785 4.416 4.01 4.416h36.89V24.53h-36.89z" fill="#198754"/><path d="M10.01 12.448h44.313c.47 0 .752.34.752.64v7.646c0 .3-.281.64-.752.64H10.01c-.471 0-.752-.34-.752-.64v-7.646c0-.3.281-.64.752-.64zm3.234 24.06h45.063c.313 0 .778.35.778 1.068v9.998c0 .717-.465 1.068-.778 1.068H13.244c-.313 0-.778-.351-.778-1.068v-9.998c0-.718.465-1.068.778-1.068z" stroke="#198754" stroke-width="1.5"/><rect x="25.75" y="39.75" width="20.5" height="5.5" rx="1.25" stroke="#198754" stroke-width="1.5"/><path d="M10.036 48.537h45.063c.352 0 .778.348.778.961v9.41c0 .613-.426.96-.778.96H10.036c-.352 0-.778-.347-.778-.96v-9.41c0-.613.426-.96.778-.96z" stroke="#198754" stroke-width="1.5"/><path d="M40.25 54c0 .667-.56 1.474-1.929 2.158-1.323.661-3.203 1.092-5.321 1.092s-3.998-.43-5.321-1.092c-1.368-.684-1.929-1.49-1.929-2.158 0-.667.56-1.474 1.929-2.158 1.323-.661 3.203-1.092 5.321-1.092s3.998.43 5.321 1.092c1.368.684 1.929 1.49 1.929 2.158zm10.763-4.61v10.427M14.122 49.39v10.427" stroke="#198754" stroke-width="1.5"/></svg>