<svg width="63" height="63" fill="none" xmlns="http://www.w3.org/2000/svg"><g clip-path="url(#clip0_3007_14689)" fill="#198754"><path d="M60.61 22.825V.923a.923.923 0 10-1.845 0v.271h-5.527c-1.335 0-2.591.52-3.536 1.465a3.134 3.134 0 01-2.23.924h-7.867a1.512 1.512 0 00-1.36.84 1.511 1.511 0 00.144 1.592l2.451 3.268-2.451 3.269a1.512 1.512 0 00-.144 1.592 1.512 1.512 0 001.36.84h7.866c1.336 0 2.592-.52 3.536-1.464a3.134 3.134 0 012.231-.925h5.527v10.23a3.325 3.325 0 00-2.258 2.258H45.908a3.318 3.318 0 00-3.18-2.39 3.315 3.315 0 00-3.312 3.313c0 1.506 1.01 2.78 2.388 3.18v7.972a3.325 3.325 0 00-2.258 2.258h-9.165a3.318 3.318 0 00-3.181-2.39 3.315 3.315 0 00-3.312 3.313c0 1.506 1.01 2.78 2.389 3.18v7.972a3.325 3.325 0 00-2.258 2.258H14.76a5.722 5.722 0 011.447-2.15 9.679 9.679 0 003.088-7.074c0-5.288-4.301-9.616-9.588-9.648a9.573 9.573 0 00-6.851 2.815A9.575 9.575 0 000 44.525a9.653 9.653 0 003.287 7.254c1.303 1.143 2.05 2.77 2.05 4.463v.087c0 .809.496 1.504 1.198 1.798v1.555A3.322 3.322 0 009.853 63a3.322 3.322 0 003.318-3.318v-1.555a1.952 1.952 0 001.197-1.798v-.458c0-.093.003-.185.007-.276h9.644a3.318 3.318 0 003.181 2.388 3.315 3.315 0 003.312-3.311c0-1.506-1.01-2.78-2.39-3.181V43.52a3.325 3.325 0 002.259-2.259h9.166a3.318 3.318 0 003.18 2.39 3.315 3.315 0 003.312-3.312c0-1.506-1.01-2.78-2.389-3.181v-7.972a3.325 3.325 0 002.258-2.258h10.6a3.318 3.318 0 003.18 2.39A3.315 3.315 0 0063 26.005c0-1.506-1.01-2.78-2.39-3.181zM11.326 59.682a1.473 1.473 0 01-2.944 0v-1.404h2.944v1.404zm-2.55-14.388a.874.874 0 011.746 0 .875.875 0 01-1.747 0zm3.748 10.577v.458a.104.104 0 01-.104.103h-1.848v-8.58a2.723 2.723 0 001.796-2.557c0-1.5-1.22-2.72-2.72-2.72a2.722 2.722 0 00-2.718 2.72c0 1.175.75 2.179 1.796 2.557v8.58H7.287a.103.103 0 01-.104-.103v-.088c0-2.224-.976-4.356-2.679-5.85a7.806 7.806 0 01-2.658-5.866c0-2.08.82-4.042 2.31-5.524a7.743 7.743 0 015.492-2.278h.048c4.275.025 7.754 3.525 7.754 7.802 0 2.163-.91 4.249-2.498 5.721-1.544 1.432-2.43 3.482-2.43 5.625zm16.143-1.2c0 .809-.658 1.467-1.466 1.467a1.468 1.468 0 01-1.466-1.458v-.017a1.468 1.468 0 011.466-1.457c.808 0 1.466.657 1.466 1.465zM27.2 41.805a1.468 1.468 0 01-1.466-1.465c0-.809.658-1.466 1.466-1.466.808 0 1.466.657 1.466 1.466 0 .808-.658 1.465-1.466 1.465zm16.993-1.465c0 .808-.657 1.465-1.466 1.465a1.468 1.468 0 01-1.466-1.465 1.467 1.467 0 012.932 0zm-1.466-12.867a1.468 1.468 0 01-1.466-1.466 1.467 1.467 0 111.466 1.466zM53.238 10.75a4.97 4.97 0 00-3.536 1.464 3.134 3.134 0 01-2.23.925h-7.216l2.476-3.302a.923.923 0 000-1.107l-2.476-3.301h7.215c1.336 0 2.592-.52 3.536-1.465a3.134 3.134 0 012.231-.924h5.527v7.71h-5.527zm6.45 16.722a1.468 1.468 0 01-1.466-1.466c0-.809.658-1.466 1.466-1.466.808 0 1.466.657 1.466 1.466 0 .808-.658 1.466-1.466 1.466z"/><path d="M9.647 38.124a6.407 6.407 0 00-6.4 6.4.923.923 0 001.846 0 4.56 4.56 0 014.554-4.554.923.923 0 100-1.846z"/></g><defs><clipPath id="clip0_3007_14689"><path fill="#fff" d="M0 0h63v63H0z"/></clipPath></defs></svg>