<svg width="67" height="67" fill="none" xmlns="http://www.w3.org/2000/svg"><g clip-path="url(#clip0_2823_30711)" fill="#198754"><path d="M33.5 17.27a3.153 3.153 0 003.15-3.15 3.153 3.153 0 00-3.15-3.15 3.153 3.153 0 00-3.15 3.15 3.153 3.153 0 003.15 3.15zm0-4.336a1.188 1.188 0 010 2.373 1.188 1.188 0 010-2.373z"/><path d="M66.019 60.426h-1.187v-3.354a.982.982 0 00-.981-.982h-3.355v-3.354a.981.981 0 00-.981-.981h-1.186V30.276h1.186a.982.982 0 00.981-.982V25.94h3.355a.982.982 0 00.981-.982v-4.335a.981.981 0 00-.981-.982h-1.862L34.06.305a.982.982 0 00-1.118 0L5.011 19.642H3.149a.981.981 0 00-.981.982v4.335c0 .542.44.982.981.982h3.355v3.354c0 .542.44.982.981.982h1.187v21.478H7.485a.982.982 0 00-.981.981v3.354H3.149a.982.982 0 00-.981.982v3.354H.98a.98.98 0 00-.981.981v4.336a.98.98 0 00.981.981h65.04a.98.98 0 00.981-.981v-4.336a.981.981 0 00-.981-.981zm-7.486-4.336h-8.876v-2.373h8.876v2.373zm-6.709-4.336V30.277h4.542v21.478h-4.542zm6.71-23.44h-8.877V25.94h8.876v2.373zm-9.858 1.963h1.185v21.478h-1.185a.98.98 0 00-.982.981v3.354h-7.793v-3.354a.981.981 0 00-.981-.981h-1.186V30.276h1.186c.542 0 .981-.44.981-.982V25.94h7.793v3.354a.982.982 0 00.981.982zM29.062 25.94h8.876v2.373h-8.876V25.94zm2.167 4.336h4.542v21.478h-4.542V30.277zm6.71 23.44v2.373h-8.877v-2.373h8.876zM4.13 21.606h17.127a.981.981 0 000-1.963H8.46L33.5 2.306l25.041 17.336H25.184a.981.981 0 000 1.963h37.685v2.373H4.131v-2.373zm4.336 4.336h8.877v2.373H8.467V25.94zm6.709 4.336v21.478h-4.542V30.277h4.542zm-6.71 23.44h8.878v2.373H8.467v-2.372zm9.859-1.962h-1.186V30.277h1.186c.542 0 .982-.44.982-.982v-3.354h7.792v3.354a.981.981 0 00.982.982h1.186v21.478H28.08a.98.98 0 00-.982.981v3.354h-7.792v-3.354a.981.981 0 00-.982-.981zM4.131 58.053h58.738v2.373H4.131v-2.373zm60.906 6.709H1.963v-2.373h63.074v2.373z"/></g><defs><clipPath id="clip0_2823_30711"><path fill="#fff" d="M0 0h67v67H0z"/></clipPath></defs></svg>