<svg width="63" height="64" fill="none" xmlns="http://www.w3.org/2000/svg"><path d="M36.046 23.41L2.93 19.952m33.115 3.458S35 26.06 35 28s1.046 5.29 1.046 5.29m0-9.88L62 19.952M36.046 33.289L2.93 28.843m33.115 4.446L62 29.831M36.046 33.29S35.036 36.116 35 38c-.039 2.059 1.046 5.169 1.046 5.169M2.93 28.843s-.863-2.972-.895-4.94c-.034-2.156.895-3.951.895-3.951m0 8.891S2.04 31.956 2.035 34c-.004 2.067.895 5.217.895 5.217m0-19.265l25.686-3.911c.178-.027.36-.03.538-.009L62 19.952m0 0s-.917 2.925-.917 4.94c0 2.014.917 4.94.917 4.94m0 0s-1.027 2.743-.917 4.94c.092 1.826.917 4.939.917 4.939m0 0l-25.954 3.458M62 39.71s-.917 4.36-.917 7.41.917 6.421.917 6.421L36.046 57m0-13.831L2.93 39.217m33.115 3.952S35.023 47.485 35 50c-.027 2.9 1.046 7 1.046 7m0 0L2.93 53.048s-.783-3.852-.916-6.422c-.151-2.915.916-7.41.916-7.41" stroke="#198754" stroke-width="1.5"/><path d="M8.5 40C8 41 7 44.024 7 46.5s.638 6.5 1 7M12.5 40c-.5 1-1.5 4.024-1.5 6.5s.639 7 1 7.5m15.5-12c-.5 1-1.5 4.024-1.5 6.5s.639 7 1 7.5m4.5-13c-.5 1-1.5 4.024-1.5 6.5s.639 6.5 1 7M29 33c-.471 1.076-.976 2.896-.976 4.322 0 2.052.576 3.884 1.476 5.086M25.689 32c-1.008 1.19-1.665 3.13-1.665 5.322 0 1.891.285 3.292.976 4.354M9.146 20S8 22.15 8 24.5C8 26.612 9.146 29 9.146 30" stroke="#198754" stroke-width="1.5"/><path d="M12.74 24.123a.75.75 0 10-1.48-.246l1.48.246zm.93 5.542c-.48-.962-1.39-2.783-.93-5.542l-1.48-.246c-.54 3.24.55 5.42 1.069 6.458l1.341-.67z" fill="#198754"/><path d="M50 61V48l6-1v13l-3-3-3 4z" fill="#fff"/><path d="M47 48.5l3-.5m9-1.5l-3 .5m-6 1v13l3-4 3 3V47m-6 1l6-1" stroke="#198754" stroke-width="1.5"/></svg>