<svg width="67" height="67" fill="none" xmlns="http://www.w3.org/2000/svg"><g clip-path="url(#clip0_2823_12384)"><path d="M65.22 62.247h-1.989v-11.67h1.99a.982.982 0 100-1.962H45.582V46.01a3.228 3.228 0 00-3.224-3.225h-1.76v-2.024a3.602 3.602 0 00-3.495-3.596V21.33a.981.981 0 00-1.963 0v15.832h-3.28V14.476h3.28v2.274a.981.981 0 001.963 0v-2.601c0-.902-.734-1.636-1.636-1.636h-.986V9.184a4.658 4.658 0 003.558-3.558h12.03v1.79L40.471 25.65a1.377 1.377 0 00-1.045.678 1.377 1.377 0 000 1.373l2.357 4.083a1.377 1.377 0 001.19.687h9.239a.981.981 0 000-1.963h-8.899l-1.677-2.905h18.825l-1.677 2.905h-1.992a.981.981 0 100 1.963h2.332c.49 0 .945-.263 1.19-.687l2.357-4.083a1.379 1.379 0 000-1.374 1.377 1.377 0 00-1.045-.677L52.031 7.416v-1.79h3.674a.982.982 0 000-1.963H38.04A4.652 4.652 0 0033.5 0a4.652 4.652 0 00-4.54 3.663H11.296a.982.982 0 000 1.963h3.674v1.79L5.373 25.65a1.377 1.377 0 00-1.045.678 1.378 1.378 0 000 1.373l2.357 4.084a1.378 1.378 0 001.19.686h16.15c.49 0 .946-.263 1.19-.687l2.358-4.082a1.378 1.378 0 000-1.374 1.376 1.376 0 00-1.045-.678L16.932 7.416v-1.79H28.96a4.658 4.658 0 003.558 3.558v3.329h-.985c-.902 0-1.636.734-1.636 1.636v23.016a3.602 3.602 0 00-3.495 3.596v2.024h-1.76a3.228 3.228 0 00-3.224 3.225v2.605H8.595c-4.3 0-7.797 3.498-7.797 7.797 0 4.3 3.498 7.798 7.797 7.798H14.1v1.415a1.37 1.37 0 001.458 1.372 1.37 1.37 0 00.698-.242l2.399-1.66 2.399 1.66a1.371 1.371 0 002.156-1.13V64.21h42.01a.981.981 0 000-1.963zM50.069 25.641h-7.373l7.373-14.01v14.01zm1.963-14.01l7.373 14.01h-7.373V11.63zm-37.062 0v14.01H7.596l7.373-14.01zm8.717 18.877H8.215l-1.677-2.905h18.825l-1.677 2.905zm.619-4.867h-7.373V11.63l7.373 14.01zm6.513-20.996A2.685 2.685 0 0133.5 1.963a2.685 2.685 0 012.682 2.682A2.685 2.685 0 0133.5 7.327a2.685 2.685 0 01-2.682-2.682zM28.364 40.76c0-.902.734-1.636 1.636-1.636h7c.902 0 1.635.734 1.635 1.636v2.024h-10.27V40.76zM8.595 62.247a5.841 5.841 0 01-5.834-5.835 5.841 5.841 0 015.834-5.834h1.366a4.451 4.451 0 00-.774 2.514v6.641a4.45 4.45 0 00.775 2.514H8.595zm12.65 2.255l-2.033-1.408a.981.981 0 00-1.117 0l-2.033 1.408v-9.555h5.184v9.555zm40.023-11.518H40.054a.981.981 0 100 1.963h21.214v2.93H40.054a.981.981 0 100 1.964h21.214v2.406h-38.06v-7.3h8.282a.981.981 0 100-1.963H13.664a.981.981 0 100 1.963h.435v7.3h-.435a2.517 2.517 0 01-2.514-2.514v-6.641a2.517 2.517 0 012.514-2.514h15.78a.981.981 0 000-1.963H23.38V46.01c0-.696.566-1.262 1.261-1.262h17.716c.695 0 1.261.566 1.261 1.262v2.605h-9.596a.981.981 0 100 1.963h27.245v2.406z" fill="#198754"/></g><defs><clipPath id="clip0_2823_12384"><path fill="#fff" d="M0 0h67v67H0z"/></clipPath></defs></svg>