<svg width="63" height="63" fill="none" xmlns="http://www.w3.org/2000/svg"><path d="M52.917 7h-28.16a2 2 0 00-2 2v1.078a2 2 0 002 2h28.16a2 2 0 002-2V9a2 2 0 00-2-2zm-.539 20.85a2 2 0 01-2 2H27.296a2 2 0 01-2-2V12.079h27.082V27.85z" stroke="#198754" stroke-width="1.5" stroke-miterlimit="10"/><path d="M38.837 30.697l-6.77 6.833m6.77-6.833l6.77 6.833M28.68 17.156h15.724M28.68 20.541h20.38m-20.38 3.386h20.38" stroke="#198754" stroke-width="1.5" stroke-miterlimit="10" stroke-linecap="round"/><path d="M26.142 46.777a2.539 2.539 0 100-5.078 2.539 2.539 0 000 5.078z" stroke="#198754" stroke-width="1.5" stroke-miterlimit="10"/><path fill-rule="evenodd" clip-rule="evenodd" d="M30.566 50.724V55.5h-8.848v-4.777a1.34 1.34 0 012.067-1.125 4.34 4.34 0 004.714 0 1.34 1.34 0 012.067 1.125zm-10.348 0c0-2.25 2.492-3.607 4.382-2.385a2.84 2.84 0 003.084 0c1.89-1.222 4.382.134 4.382 2.385V56a1 1 0 01-1 1h-9.848a1 1 0 01-1-1v-5.277z" fill="#198754"/><path d="M51.532 46.777a2.539 2.539 0 100-5.078 2.539 2.539 0 000 5.078z" stroke="#198754" stroke-width="1.5" stroke-miterlimit="10"/><path fill-rule="evenodd" clip-rule="evenodd" d="M55.956 50.724V55.5h-8.849v-4.777a1.34 1.34 0 012.068-1.125 4.34 4.34 0 004.714 0 1.34 1.34 0 012.067 1.125zm-10.349 0c0-2.25 2.493-3.607 4.382-2.385a2.84 2.84 0 003.085 0c1.89-1.222 4.382.134 4.382 2.385V56a1 1 0 01-1 1h-9.849a1 1 0 01-1-1v-5.277z" fill="#198754"/><path d="M38.838 46.777a2.539 2.539 0 100-5.078 2.539 2.539 0 000 5.078z" stroke="#198754" stroke-width="1.5" stroke-miterlimit="10"/><path fill-rule="evenodd" clip-rule="evenodd" d="M43.261 50.724V55.5h-8.848v-4.777a1.34 1.34 0 012.067-1.125 4.34 4.34 0 004.714 0 1.34 1.34 0 012.067 1.125zm-10.348 0c0-2.25 2.493-3.607 4.382-2.385a2.84 2.84 0 003.085 0c1.889-1.222 4.381.134 4.381 2.385V56a1 1 0 01-1 1h-9.848a1 1 0 01-1-1v-5.277z" fill="#198754"/><path d="M13.448 15.464c1.87 0 3.385-1.706 3.385-3.809s-1.516-3.808-3.385-3.808c-1.87 0-3.386 1.705-3.386 3.808 0 2.104 1.516 3.809 3.386 3.809zm-4.232 9.309v8.708a.608.608 0 01-.083.337c-.32.494-1.273 1.11-2.033 1.11-.845 0-1.868-.856-2.054-1.43-.098-.303-.011-11.581-.001-12.842 0-.08.01-.155.032-.232.833-3.016 3.916-3.682 5.313-2.999.433.212 1.53 1.389 2.285 2.234a1.04 1.04 0 001.545 0c.755-.845 1.852-2.022 2.284-2.234 1.405-.687 4.933-.01 5.397 3.05.007.044.01.082.01.125.003.933.037 12.59-.062 12.899-.185.57-1.21 1.43-2.054 1.43-.762 0-1.717-.75-2.036-1.27a.636.636 0 01-.08-.338v-8.548" stroke="#198754" stroke-width="1.5" stroke-miterlimit="10"/><path d="M13.447 34.93s-.088 16.882.132 17.349c.234.502 1.417 1.271 2.05 1.27.632 0 1.6-.57 1.956-1.098a.651.651 0 00.094-.369V31.544" stroke="#198754" stroke-width="1.5" stroke-miterlimit="10"/><path d="M13.447 34.93s.055 17.193-.043 17.349c-.315.502-1.224 1.271-2.072 1.27-.825 0-1.59-.538-1.977-1.053a.776.776 0 01-.14-.47V31.544" stroke="#198754" stroke-width="1.5" stroke-miterlimit="10"/><path fill-rule="evenodd" clip-rule="evenodd" d="M8.37 32.544h10.154v-2H8.369v2z" fill="#198754"/></svg>