<svg xmlns="http://www.w3.org/2000/svg" width="28" height="28" fill="none"><path fill-rule="evenodd" clip-rule="evenodd" d="M14 28c7.732 0 14-6.268 14-14S21.732 0 14 0 0 6.268 0 14s6.268 14 14 14zm1.375-17.47c-.403 5.742.777 4.935 3.205 0 .257-.732.49-.919 1.068-.854h3.302c.626.014.717.263.486 1.043-.86 1.635-1.449 2.388-2.372 3.57l-.25.322c-.588.782-.563 1.2.29 1.898 1.017.84 1.507 1.43 2.332 2.562.335.718.15.978-.486 1.329h-3.496c-.755-.239-1.387-.76-2.914-2.468-.519-.247-.76-.244-.971.38l-.194 1.329c-.153.527-.353.646-.777.759L13 20.347c-4.71-.974-6.56-4.028-9.377-10.197-.078-.466.027-.611.583-.57h2.816c.665.016.87.217 1.069.759.895 2.202 1.377 2.809 2.233 3.796.777.896 1.028.269.972-.664 0 0 .097-2.466 0-2.752-.05-.146-.227-.217-.44-.303-.204-.082-.44-.177-.629-.362-.388-.38.373-.854.777-.854h3.594c.648.064.714.491.777 1.33z" fill="#F8F7F7"/></svg>