<svg width="63" height="54" viewBox="0 0 63 54" fill="none" xmlns="http://www.w3.org/2000/svg">
<path d="M52.635 6.90527H56.3802C57.4206 6.90527 58.2872 7.7029 58.3734 8.7397L61.8015 50.0073C61.8984 51.1732 60.9782 52.1729 59.8084 52.1729H30.9907" stroke="#198754" stroke-width="1.5" stroke-miterlimit="10"/>
<path d="M10.6745 6.90527H6.48272C5.44026 6.90527 4.57263 7.70599 4.48914 8.7451L1.17356 50.0127C1.08004 51.1767 1.99941 52.1729 3.16713 52.1729H30.991" stroke="#198754" stroke-width="1.5" stroke-miterlimit="10"/>
<path d="M11.0591 40.4527C11.0591 40.2441 10.8187 40.1272 10.6546 40.2561L6.38468 43.6103C6.25728 43.7104 6.25726 43.9033 6.38464 44.0034L10.6546 47.3592L10.2175 47.9153L10.6546 47.3592C10.8186 47.4881 11.0591 47.3712 11.0591 47.1626V40.4527Z" stroke="#198754" stroke-width="1.5" stroke-miterlimit="10"/>
<path d="M51.9224 40.4527C51.9224 40.2441 52.1628 40.1272 52.3268 40.2561L56.5968 43.6103C56.7242 43.7104 56.7242 43.9033 56.5968 44.0034L52.3268 47.3592L52.7639 47.9153L52.3268 47.3592C52.1628 47.4881 51.9224 47.3712 51.9224 47.1626V40.4527Z" stroke="#198754" stroke-width="1.5" stroke-miterlimit="10"/>
<path d="M32.7954 3.07353C31.7784 3.18164 31.0068 4.0396 31.0068 5.06233V30.7253C31.0068 31.7608 31.7973 32.6251 32.8287 32.7173L50.1239 34.2639C51.2941 34.3686 52.302 33.4468 52.302 32.2719V3.22386C52.302 2.03564 51.2722 1.10947 50.0906 1.23507L32.7954 3.07353Z" stroke="#198754" stroke-width="1.5" stroke-miterlimit="10"/>
<path d="M29.1919 2.72004C30.2204 2.8156 31.0069 3.67858 31.0069 4.71146V30.7122C31.0069 31.7436 30.2225 32.6059 29.1957 32.7032L12.8685 34.2512C11.6946 34.3625 10.6797 33.4393 10.6797 32.2601V3.19444C10.6797 2.01679 11.6921 1.09407 12.8647 1.20302L29.1919 2.72004Z" stroke="#198754" stroke-width="1.5" stroke-miterlimit="10"/>
<path d="M35.9894 7.88823L47.9858 6.41211" stroke="#198754" stroke-width="1.5" stroke-miterlimit="10" stroke-linecap="round"/>
<path d="M35.9894 12.8091L47.9858 11.333" stroke="#198754" stroke-width="1.5" stroke-miterlimit="10" stroke-linecap="round"/>
<path d="M26.9925 13.3003L14.9961 11.8242" stroke="#198754" stroke-width="1.5" stroke-miterlimit="10" stroke-linecap="round"/>
<path d="M26.9925 8.38139L14.9961 6.90527" stroke="#198754" stroke-width="1.5" stroke-miterlimit="10" stroke-linecap="round"/>
<path d="M21.897 17.5464L14.9956 16.7451" stroke="#198754" stroke-width="1.5" stroke-miterlimit="10" stroke-linecap="round"/>
<path d="M21.8975 22.4673L14.9961 21.666" stroke="#198754" stroke-width="1.5" stroke-miterlimit="10" stroke-linecap="round"/>
<path d="M40.9878 27.3894L47.8892 26.5859" stroke="#198754" stroke-width="1.5" stroke-miterlimit="10" stroke-linecap="round"/>
<path d="M35.9899 17.73L47.9863 16.2539" stroke="#198754" stroke-width="1.5" stroke-miterlimit="10" stroke-linecap="round"/>
<path d="M35.9894 22.6499L47.9858 21.1738" stroke="#198754" stroke-width="1.5" stroke-miterlimit="10" stroke-linecap="round"/>
<path d="M38.613 38.7502C38.613 39.007 37.8516 39.9056 37.4708 40.6758C37.3602 40.8996 37.3132 41.7272 37.3043 43.3717H27.1907V41.6405C27.1907 41.2619 27.0832 40.8911 26.8808 40.5711L21.0988 31.4329L20.6628 30.6511C20.0361 29.5275 21.3181 28.3077 22.4092 28.9893C22.5495 29.077 22.6709 29.1918 22.7664 29.3269L24.6123 31.941C25.1751 32.738 26.4292 32.3398 26.4292 31.3642V21.0171C26.4292 20.176 27.1111 19.4941 27.9522 19.4941C28.7933 19.4941 29.4752 20.176 29.4752 21.0171V26.7939C29.4752 25.9528 30.157 25.271 30.9981 25.271C31.8393 25.271 32.5211 25.9528 32.5211 26.7939V27.9493C32.5211 27.1082 33.203 26.4263 34.0441 26.4263C34.8852 26.4263 35.5671 27.1082 35.5671 27.9493V29.4898C35.5671 28.6487 36.2489 27.9668 37.0901 27.9668C37.9312 27.9668 38.613 28.6477 38.613 29.4888V38.7502Z" fill="#FEFEFE"/>
<path d="M37.4708 52.9997C37.39 50.4655 37.2886 46.255 37.3043 43.3717M27.1907 52.9997V43.3717M27.1907 43.3717V41.6405C27.1907 41.2619 27.0832 40.8911 26.8808 40.5711L21.0988 31.4329L20.6628 30.6511C20.0361 29.5275 21.3181 28.3077 22.4092 28.9893V28.9893C22.5495 29.077 22.6709 29.1918 22.7664 29.3269L24.6123 31.941C25.1751 32.738 26.4292 32.3398 26.4292 31.3642V21.0171C26.4292 20.176 27.1111 19.4941 27.9522 19.4941V19.4941C28.7933 19.4941 29.4752 20.176 29.4752 21.0171V32.2031V26.7939C29.4752 25.9528 30.157 25.271 30.9981 25.271V25.271C31.8393 25.271 32.5211 25.9528 32.5211 26.7939V32.2031V27.9493C32.5211 27.1082 33.203 26.4263 34.0441 26.4263V26.4263C34.8852 26.4263 35.5671 27.1082 35.5671 27.9493V32.2031V29.4898C35.5671 28.6487 36.2489 27.9668 37.0901 27.9668V27.9668C37.9312 27.9668 38.613 28.6477 38.613 29.4888C38.613 33.0688 38.613 38.0822 38.613 38.7502C38.613 39.007 37.8516 39.9056 37.4708 40.6758C37.3602 40.8996 37.3132 41.7272 37.3043 43.3717M27.1907 43.3717H37.3043" stroke="#198754" stroke-width="1.5"/>
</svg>
