<svg width="55" height="56" viewBox="0 0 55 56" fill="none" xmlns="http://www.w3.org/2000/svg">
<path d="M23.1006 16.8654C23.4867 17.2418 23.7045 17.7582 23.7045 18.2975V42.0291C23.7045 43.1336 22.809 44.0291 21.7045 44.0291H12.3853H12.2264H2.90723C1.80266 44.0291 0.907227 43.1336 0.907227 42.0291V13.4707C0.907227 12.3661 1.80266 11.4707 2.90723 11.4707H12.2264H16.7532C17.2748 11.4707 17.7758 11.6745 18.1493 12.0386L23.1006 16.8654Z" stroke="#198754" stroke-width="1.5" stroke-miterlimit="10"/>
<path d="M4.39062 19.29H14.9124" stroke="#198754" stroke-width="1.5" stroke-miterlimit="10"/>
<path d="M4.39062 25.3867H20.1733" stroke="#198754" stroke-width="1.5" stroke-miterlimit="10"/>
<path d="M4.39062 31.4834L20.1733 31.4834" stroke="#198754" stroke-width="1.5" stroke-miterlimit="10"/>
<path d="M4.39062 37.5801L20.1733 37.5801" stroke="#198754" stroke-width="1.5" stroke-miterlimit="10"/>
<path d="M16.6899 11.4512V16.3113C16.6899 17.4158 17.5854 18.3113 18.6899 18.3113H23.7045" stroke="#198754" stroke-width="1.5" stroke-miterlimit="10"/>
<path d="M37.488 48.9031H33.2622C32.7099 48.9031 32.2622 48.4554 32.2622 47.9031V28.1085V27.8935V8.09668C32.2622 7.5444 32.7099 7.09668 33.2622 7.09668H37.488" stroke="#198754" stroke-width="1.5" stroke-miterlimit="10"/>
<path d="M27.9209 28.0137H37.1974" stroke="#198754" stroke-width="1.5" stroke-miterlimit="10"/>
<path d="M52.2941 1H42.1006C40.996 1 40.1006 1.89543 40.1006 3V11.1935C40.1006 12.2981 40.996 13.1935 42.1006 13.1935H50.2941C51.3987 13.1935 52.2941 12.2981 52.2941 11.1935L52.2941 5.79032" stroke="#198754" stroke-width="1.5" stroke-miterlimit="10"/>
<path d="M52.2941 21.9033H42.1006C40.996 21.9033 40.1006 22.7988 40.1006 23.9033V32.0969C40.1006 33.2014 40.996 34.0969 42.1006 34.0969H50.2941C51.3987 34.0969 52.2941 33.2014 52.2941 32.0969L52.2941 26.6936" stroke="#198754" stroke-width="1.5" stroke-miterlimit="10"/>
<path d="M46.1978 27.9986L47.6869 29.7519C48.0757 30.2097 48.7775 30.2239 49.1845 29.7822L54.0365 24.5166" stroke="#198754" stroke-width="1.5" stroke-miterlimit="10"/>
<path d="M52.2941 42.8066H42.1006C40.996 42.8066 40.1006 43.7021 40.1006 44.8066V53.0002C40.1006 54.1048 40.996 55.0002 42.1006 55.0002H50.2941C51.3987 55.0002 52.2941 54.1048 52.2941 53.0002L52.2941 47.597" stroke="#198754" stroke-width="1.5" stroke-miterlimit="10"/>
<path d="M46.1978 48.9009L47.6869 50.6542C48.0757 51.112 48.7775 51.1262 49.1845 50.6845L54.0365 45.4189" stroke="#198754" stroke-width="1.5" stroke-miterlimit="10"/>
<path d="M46.1978 7.09524L47.6869 8.84858C48.0757 9.30636 48.7775 9.32055 49.1845 8.87886L54.0365 3.61328" stroke="#198754" stroke-width="1.5" stroke-miterlimit="10"/>
</svg>
