<svg width="57" height="56" viewBox="0 0 57 56" fill="none" xmlns="http://www.w3.org/2000/svg">
<path d="M21.9143 6.75781L3 6.75781C1.89543 6.75781 1 7.65324 1 8.75781V43.4924C1 44.597 1.89543 45.4924 3 45.4924H28.3436H53.9C55.0046 45.4924 55.9 44.597 55.9 43.4924V8.75781C55.9 7.65324 55.0046 6.75781 53.9 6.75781H34.9857" stroke="#198754" stroke-width="1.5" stroke-miterlimit="10"/>
<path d="M32.2496 14.5293H42.3889C43.4935 14.5293 44.3889 15.4247 44.3889 16.5293V36.8293C44.3889 37.9339 43.4935 38.8293 42.3889 38.8293H30.4502C29.3456 38.8293 28.4502 37.9339 28.4502 36.8293V23.1612" stroke="#198754" stroke-width="1.5" stroke-miterlimit="10"/>
<path d="M32.8774 38.8295H46.8162C47.9207 38.8295 48.8162 37.9341 48.8162 36.8295V19.2295C48.8162 18.1249 47.9207 17.2295 46.8162 17.2295H45.2303" stroke="#198754" stroke-width="1.5" stroke-miterlimit="10"/>
<path d="M24.9082 38.8295H10.084C8.97941 38.8295 8.08398 37.9341 8.08398 36.8295V19.2295C8.08398 18.1249 8.97941 17.2295 10.084 17.2295H11.7756" stroke="#198754" stroke-width="1.5" stroke-miterlimit="10"/>
<path d="M24.4653 14.5293H14.5112C13.4067 14.5293 12.5112 15.4247 12.5112 16.5293V36.8293C12.5112 37.9339 13.4067 38.8293 14.5112 38.8293H26.4499C27.5545 38.8293 28.4499 37.9339 28.4499 36.8293V23.1612" stroke="#198754" stroke-width="1.5" stroke-miterlimit="10"/>
<path d="M55.8999 38.8789L28.8999 38.8789L1.8999 38.8789" stroke="#198754" stroke-width="1.5" stroke-miterlimit="10"/>
<path d="M37.3052 23.5293H41.2162" stroke="#198754" stroke-width="1.5" stroke-miterlimit="10" stroke-linecap="round"/>
<path d="M16.0532 23.5293H19.9642" stroke="#198754" stroke-width="1.5" stroke-miterlimit="10" stroke-linecap="round"/>
<path d="M32.8774 27.1299H40.9774" stroke="#198754" stroke-width="1.5" stroke-miterlimit="10" stroke-linecap="round"/>
<path d="M16.0532 27.1299H24.1532" stroke="#198754" stroke-width="1.5" stroke-miterlimit="10" stroke-linecap="round"/>
<path d="M32.8774 30.7295H40.9774" stroke="#198754" stroke-width="1.5" stroke-miterlimit="10" stroke-linecap="round"/>
<path d="M16.0532 30.7295H24.1532" stroke="#198754" stroke-width="1.5" stroke-miterlimit="10" stroke-linecap="round"/>
<path d="M16.0532 34.3291H24.1532" stroke="#198754" stroke-width="1.5" stroke-miterlimit="10" stroke-linecap="round"/>
<path d="M32.8774 34.3291H40.9774" stroke="#198754" stroke-width="1.5" stroke-miterlimit="10" stroke-linecap="round"/>
<path d="M22.4994 45.8525C22.4994 45.8525 22.9681 49.3655 21.9799 50.7617C21.495 51.4467 21.0506 51.9428 20.7237 52.2705C20.3924 52.6026 20.1714 53.0458 20.1714 53.5148V53.5148C20.1714 54.3351 20.8364 55.0001 21.6567 55.0001H28.4046H28.4953H35.2421C36.063 55.0001 36.7285 54.3346 36.7285 53.5136V53.5136C36.7285 53.0452 36.5082 52.6025 36.1775 52.2709C35.8504 51.9429 35.4055 51.4464 34.92 50.7617C33.9318 49.3679 34.4005 45.8525 34.4005 45.8525" stroke="#198754" stroke-width="1.5" stroke-miterlimit="10"/>
<path d="M32.4106 19.8945H24.4896C23.4461 19.8945 22.6001 20.7405 22.6001 21.784C22.6001 22.8276 23.446 23.6735 24.4896 23.6735H32.4106C33.4541 23.6735 34.3001 22.8276 34.3001 21.784C34.3001 20.7405 33.4541 19.8945 32.4106 19.8945Z" stroke="#198754" stroke-width="1.5" stroke-miterlimit="10"/>
<path d="M31.0833 17.0605H25.8175C25.0349 17.0605 24.4004 17.695 24.4004 18.4777C24.4004 19.2603 25.0349 19.8948 25.8175 19.8948H31.0833C31.8659 19.8948 32.5004 19.2603 32.5004 18.4777C32.5004 17.695 31.8659 17.0605 31.0833 17.0605Z" stroke="#198754" stroke-width="1.5" stroke-miterlimit="10"/>
<path d="M25.6308 18.0054C25.3281 17.0264 25.3167 15.6519 24.5131 14.407C24.352 14.1561 23.8736 13.5234 23.718 13.3187C23.6849 13.2751 23.652 13.2356 23.6167 13.1937C23.2278 12.7317 20.815 9.66275 22.0478 5.99089C22.9879 3.1926 25.212 1.19449 28.1235 1.00621C28.2533 0.996795 28.5151 0.999149 28.6471 1.00621C31.5587 1.16625 33.9125 3.19024 34.8526 5.99089C36.0854 9.66275 33.6726 12.7317 33.2837 13.1937C33.2484 13.2356 33.2155 13.2751 33.1823 13.3187C33.0268 13.5234 32.5484 14.1561 32.3873 14.407C31.5837 15.6519 31.5746 17.0287 31.2695 18.0054" stroke="#198754" stroke-width="1.5" stroke-miterlimit="10"/>
<path d="M25.8398 8.55957L26.7278 10.9532" stroke="#198754" stroke-width="2" stroke-miterlimit="10" stroke-linecap="round"/>
<path d="M28.7275 8.55957L29.6155 10.9532" stroke="#198754" stroke-width="2" stroke-miterlimit="10" stroke-linecap="round"/>
<path d="M31.6157 8.55957L32.5037 10.9532" stroke="#198754" stroke-width="2" stroke-miterlimit="10" stroke-linecap="round"/>
</svg>
