<svg width="60" height="53" viewBox="0 0 60 53" fill="none" xmlns="http://www.w3.org/2000/svg">
<g id="&#208;&#191;&#208;&#190;&#208;&#180;&#208;&#179;&#208;&#190;&#209;&#130;&#208;&#190;&#208;&#178;&#208;&#186;&#208;&#176; &#208;&#189;&#208;&#176;&#209;&#131;&#209;&#135;&#208;&#189;&#209;&#139;&#209;&#133; &#209;&#128;&#208;&#176;&#208;&#177;&#208;&#190;&#209;&#130;&#208;&#189;&#208;&#184;&#208;&#186;&#208;&#190;&#208;&#178;">
<g id="Group 427320728">
<g id="Group 427320739">
<path id="Vector" d="M19.6836 15.0186V16.5367C19.6836 17.077 18.7401 17.3126 18.2479 17.5354C18.1912 17.561 18.135 17.5958 18.0796 17.6412C17.3883 18.2083 16.5906 22.452 19.4806 23.9641C19.6082 24.0308 19.7112 24.1326 19.7677 24.2651C20.3707 25.6798 24.1809 34.0418 29.9972 34.0418" stroke="#198754" stroke-width="1.5" stroke-miterlimit="10"/>
<path id="Vector_2" d="M40.3107 15.0186V16.5367C40.3107 17.077 41.2541 17.3126 41.7464 17.5354C41.8031 17.561 41.8593 17.5958 41.9147 17.6412C42.606 18.2083 43.4037 22.452 40.5137 23.9641C40.3861 24.0308 40.2831 24.1326 40.2266 24.2651C39.6236 25.6798 35.8133 34.0418 29.9971 34.0418" stroke="#198754" stroke-width="1.5" stroke-miterlimit="10"/>
<path id="Vector_3" d="M40.2034 8.5625L41.1551 14.3228C41.2137 14.6774 40.9267 14.9946 40.5679 14.9738C39.2136 14.8951 36.274 14.7633 35.1389 15.0185C33.8995 15.2969 31.6972 16.4999 30.4268 17.2089C30.2565 17.304 30.0502 17.3031 29.8807 17.2065C28.6327 16.4954 26.4788 15.2966 25.2405 15.0185C24.1064 14.7633 21.1661 14.8952 19.8115 14.9738C19.4527 14.9946 19.1657 14.6774 19.2243 14.3228L20.176 8.5625" stroke="#198754" stroke-width="1.5" stroke-miterlimit="10"/>
<path id="Vector_4" d="M30.4614 6.85588L35.5383 5.11719" stroke="#198754" stroke-width="1.5" stroke-miterlimit="10" stroke-linecap="round"/>
<path id="Vector_5" d="M29.9184 1.00659C30.0467 0.95709 30.1888 0.956943 30.3173 1.00618L43.6222 6.10753C44.096 6.28919 44.0983 6.95866 43.6258 7.1436L30.3717 12.3314C30.2416 12.3824 30.097 12.3824 29.9669 12.3315L16.6972 7.14185C16.2251 6.95721 16.2267 6.28859 16.6996 6.10614L29.9184 1.00659Z" stroke="#198754" stroke-width="1.5" stroke-miterlimit="10"/>
<path id="Vector_6" d="M38.025 35.418L30.5221 39.2506C30.2064 39.4118 29.8327 39.4128 29.5161 39.2531L21.9141 35.418" stroke="#198754" stroke-width="1.5" stroke-miterlimit="10" stroke-linecap="round"/>
<path id="Vector_7" d="M36.6167 30.6836C37.2469 30.8742 45.6587 35.1111 48.2323 37.5537C52.5235 41.6245 51.7478 49.4472 51.4175 51.6207C51.3774 51.8843 51.1492 52.0696 50.8826 52.0696H29.9999H9.11716C8.85062 52.0696 8.6224 51.8844 8.58234 51.6208C8.25199 49.4479 7.47642 41.6244 11.7676 37.5537C14.3425 35.1111 22.753 30.8742 23.3831 30.6836" stroke="#198754" stroke-width="1.5" stroke-miterlimit="10"/>
</g>
<g id="Group 427320726">
<path id="Vector_8" d="M15.239 31.0901C13.1862 29.308 12.1704 26.7181 11.8984 25.9368C11.8472 25.7896 11.7403 25.6691 11.6068 25.5887C9.6689 24.4223 9.76875 21.1481 10.1738 20.1266C10.2524 19.9283 10.347 19.7042 10.3238 19.4921L10.0072 16.6024C10.0027 16.5613 10.0022 16.5237 10.0084 16.4828C10.11 15.8118 11.2957 9.51349 20.062 9.00098" stroke="#198754" stroke-width="1.5" stroke-miterlimit="10"/>
<path id="Vector_9" d="M8.35748 46.6041L1.6605 46.6655C1.39117 46.668 1.1595 46.4795 1.12168 46.2128C0.85881 44.3594 0.339075 38.3218 3.60779 35.1519C5.60673 33.2147 13.1207 29.4634 13.6106 29.3115" stroke="#198754" stroke-width="1.5" stroke-miterlimit="10"/>
</g>
<g id="Group 427320727">
<path id="Vector_10" d="M45.1946 31.0901C47.2474 29.308 48.2632 26.7181 48.5352 25.9368C48.5864 25.7896 48.6933 25.6691 48.8268 25.5887C50.7647 24.4223 50.6648 21.1481 50.2598 20.1266C50.1812 19.9283 50.0866 19.7042 50.1098 19.4921L50.4264 16.6024C50.4309 16.5613 50.4314 16.5237 50.4252 16.4828C50.3236 15.8118 49.1379 9.51349 40.3716 9.00098" stroke="#198754" stroke-width="1.5" stroke-miterlimit="10"/>
<path id="Vector_11" d="M51.642 46.6669L58.339 46.7283C58.6083 46.7307 58.84 46.5422 58.8778 46.2756C59.1407 44.4221 59.6604 38.3845 56.3917 35.2146C54.3928 33.2774 47.3349 29.6118 46.845 29.46" stroke="#198754" stroke-width="1.5" stroke-miterlimit="10"/>
</g>
</g>
</g>
</svg>
