<svg width="63" height="63" viewBox="0 0 63 63" fill="none" xmlns="http://www.w3.org/2000/svg">
<path d="M52.917 7H24.7568C23.6523 7 22.7568 7.89543 22.7568 9V10.0779C22.7568 11.1825 23.6523 12.0779 24.7568 12.0779H52.917C54.0215 12.0779 54.917 11.1825 54.917 10.0779V9C54.917 7.89543 54.0215 7 52.917 7Z" stroke="#198754" stroke-width="1.5" stroke-miterlimit="10"/>
<path d="M52.3781 27.8506C52.3781 28.9552 51.4827 29.8506 50.3781 29.8506H38.7397H27.2959C26.1913 29.8506 25.2959 28.9552 25.2959 27.8506V12.0779H52.3781V27.8506Z" stroke="#198754" stroke-width="1.5" stroke-miterlimit="10"/>
<path d="M38.837 30.6973L32.0664 37.5303" stroke="#198754" stroke-width="1.5" stroke-miterlimit="10" stroke-linecap="round"/>
<path d="M38.8369 30.6973L45.6074 37.5303" stroke="#198754" stroke-width="1.5" stroke-miterlimit="10" stroke-linecap="round"/>
<path d="M28.6807 17.1562H44.4039" stroke="#198754" stroke-width="1.5" stroke-miterlimit="10" stroke-linecap="round"/>
<path d="M28.6807 20.541H49.0604" stroke="#198754" stroke-width="1.5" stroke-miterlimit="10" stroke-linecap="round"/>
<path d="M28.6807 23.9268H49.0604" stroke="#198754" stroke-width="1.5" stroke-miterlimit="10" stroke-linecap="round"/>
<path d="M26.1425 46.777C27.5447 46.777 28.6814 45.6403 28.6814 44.2381C28.6814 42.8358 27.5447 41.6991 26.1425 41.6991C24.7402 41.6991 23.6035 42.8358 23.6035 44.2381C23.6035 45.6403 24.7402 46.777 26.1425 46.777Z" stroke="#198754" stroke-width="1.5" stroke-miterlimit="10"/>
<path fill-rule="evenodd" clip-rule="evenodd" d="M30.5662 50.7235V55.5008H21.7178V50.7235C21.7178 49.6619 22.8937 49.0221 23.785 49.5986C25.2194 50.5264 27.0646 50.5264 28.499 49.5986C29.3903 49.0221 30.5662 49.6619 30.5662 50.7235ZM20.2178 50.7235C20.2178 48.4732 22.7103 47.117 24.5997 48.3391C25.5383 48.9462 26.7457 48.9462 27.6843 48.3391C29.5737 47.117 32.0662 48.4732 32.0662 50.7235V56.0008C32.0662 56.5531 31.6185 57.0008 31.0662 57.0008H21.2178C20.6655 57.0008 20.2178 56.5531 20.2178 56.0008V50.7235Z" fill="#198754"/>
<path d="M51.5321 46.777C52.9343 46.777 54.0711 45.6403 54.0711 44.2381C54.0711 42.8358 52.9343 41.6991 51.5321 41.6991C50.1299 41.6991 48.9932 42.8358 48.9932 44.2381C48.9932 45.6403 50.1299 46.777 51.5321 46.777Z" stroke="#198754" stroke-width="1.5" stroke-miterlimit="10"/>
<path fill-rule="evenodd" clip-rule="evenodd" d="M55.9559 50.7235V55.5008H47.1074V50.7235C47.1074 49.6619 48.2833 49.0221 49.1747 49.5986C50.609 50.5264 52.4543 50.5264 53.8886 49.5986C54.78 49.0221 55.9559 49.6619 55.9559 50.7235ZM45.6074 50.7235C45.6074 48.4732 48.0999 47.117 49.9894 48.3391C50.9279 48.9462 52.1354 48.9462 53.0739 48.3391C54.9634 47.117 57.4559 48.4732 57.4559 50.7235V56.0008C57.4559 56.5531 57.0082 57.0008 56.4559 57.0008H46.6074C46.0551 57.0008 45.6074 56.5531 45.6074 56.0008V50.7235Z" fill="#198754"/>
<path d="M38.8378 46.7771C40.24 46.7771 41.3767 45.6404 41.3767 44.2382C41.3767 42.836 40.24 41.6992 38.8378 41.6992C37.4356 41.6992 36.2988 42.836 36.2988 44.2382C36.2988 45.6404 37.4356 46.7771 38.8378 46.7771Z" stroke="#198754" stroke-width="1.5" stroke-miterlimit="10"/>
<path fill-rule="evenodd" clip-rule="evenodd" d="M43.2615 50.7236V55.5009H34.4131V50.7236C34.4131 49.662 35.589 49.0222 36.4804 49.5987C37.9147 50.5265 39.7599 50.5265 41.1943 49.5987C42.0857 49.0222 43.2615 49.662 43.2615 50.7236ZM32.9131 50.7236C32.9131 48.4734 35.4056 47.1171 37.295 48.3393C38.2336 48.9464 39.441 48.9464 40.3796 48.3393C42.269 47.1171 44.7615 48.4734 44.7615 50.7236V56.0009C44.7615 56.5532 44.3138 57.0009 43.7615 57.0009H33.9131C33.3608 57.0009 32.9131 56.5532 32.9131 56.0009V50.7236Z" fill="#198754"/>
<path d="M13.4478 15.4636C15.3174 15.4636 16.8331 13.7585 16.8331 11.6551C16.8331 9.55177 15.3174 7.84668 13.4478 7.84668C11.5781 7.84668 10.0625 9.55177 10.0625 11.6551C10.0625 13.7585 11.5781 15.4636 13.4478 15.4636Z" stroke="#198754" stroke-width="1.5" stroke-miterlimit="10"/>
<path d="M9.21572 24.773C9.21572 24.773 9.21572 32.1817 9.21572 33.4812C9.21572 33.6 9.1981 33.7187 9.13332 33.8184C8.81277 34.3117 7.86005 34.9288 7.09993 34.9288C6.2552 34.9288 5.23233 34.0719 5.04585 33.4986C4.94846 33.1947 5.03495 21.9166 5.04493 20.6557C5.04556 20.5761 5.05554 20.5011 5.07672 20.4244C5.90968 17.4077 8.99349 16.7417 10.3903 17.425C10.823 17.6367 11.9197 18.8137 12.6746 19.6588C13.0847 20.1178 13.8099 20.1178 14.22 19.6588C14.9749 18.8137 16.0717 17.6367 16.5044 17.425C17.9089 16.7379 21.4366 17.4152 21.901 20.4751C21.9076 20.5186 21.9106 20.5566 21.9107 20.6005C21.9136 21.5331 21.9478 33.1896 21.8488 33.4986C21.6643 34.0698 20.6394 34.9288 19.7947 34.9288C19.033 34.9288 18.0778 34.1783 17.7593 33.6588C17.6971 33.5575 17.6789 33.4395 17.6789 33.3206C17.6789 32.0345 17.6789 24.773 17.6789 24.773" stroke="#198754" stroke-width="1.5" stroke-miterlimit="10"/>
<path d="M13.4472 34.9292C13.4472 34.9292 13.3589 51.8122 13.5788 52.2788C13.8134 52.7812 14.9964 53.5504 15.6288 53.5482C16.2607 53.5482 17.2292 52.9789 17.5849 52.4509C17.6574 52.3432 17.6788 52.212 17.6788 52.0822L17.6788 31.5439" stroke="#198754" stroke-width="1.5" stroke-miterlimit="10"/>
<path d="M13.4474 34.9292C13.4474 34.9292 13.5016 52.123 13.4041 52.2788C13.0894 52.7812 12.1795 53.5504 11.3316 53.5482C10.507 53.5482 9.74141 53.0112 9.35534 52.4962C9.25454 52.3617 9.21582 52.1936 9.21582 52.0255V31.5439" stroke="#198754" stroke-width="1.5" stroke-miterlimit="10"/>
<path fill-rule="evenodd" clip-rule="evenodd" d="M8.36914 32.5439H13.4471H13.4471H18.525V30.5439H13.4471H13.4471H8.36914V32.5439Z" fill="#198754"/>
</svg>
