<svg width="67" height="67" viewBox="0 0 67 67" fill="none" xmlns="http://www.w3.org/2000/svg">
<g clip-path="url(#clip0_2823_12384)">
<path d="M65.2208 62.2471H63.2311V50.5779H65.2208C65.4811 50.5779 65.7308 50.4745 65.9148 50.2905C66.0989 50.1064 66.2023 49.8568 66.2023 49.5965C66.2023 49.3362 66.0989 49.0866 65.9148 48.9025C65.7308 48.7184 65.4811 48.6151 65.2208 48.6151H45.582V46.0098C45.582 44.2319 44.1356 42.7854 42.3576 42.7854H40.5985V40.7607C40.5985 38.8111 39.0397 37.2197 37.1031 37.1647V21.3301C37.1031 21.0698 36.9997 20.8202 36.8156 20.6361C36.6316 20.452 36.3819 20.3486 36.1216 20.3486C35.8613 20.3486 35.6117 20.452 35.4277 20.6361C35.2436 20.8202 35.1402 21.0698 35.1402 21.3301V37.162H31.8601V14.4761H35.1402V16.75C35.1402 17.0103 35.2436 17.2599 35.4277 17.444C35.6117 17.628 35.8613 17.7314 36.1216 17.7314C36.3819 17.7314 36.6316 17.628 36.8156 17.444C36.9997 17.2599 37.1031 17.0103 37.1031 16.75V14.1489C37.1031 13.2469 36.3694 12.5132 35.4673 12.5132H34.4815V9.1845C36.2562 8.80121 37.6562 7.40114 38.0395 5.62643H50.0681V7.41646L40.4717 25.6503C40.0389 25.6967 39.6473 25.946 39.4269 26.3275C39.3066 26.5365 39.2434 26.7734 39.2434 27.0145C39.2434 27.2556 39.3066 27.4925 39.4269 27.7015L41.7841 31.784C41.9049 31.9927 42.0785 32.166 42.2873 32.2866C42.4961 32.4072 42.7329 32.4708 42.9741 32.4712H52.2129C52.4732 32.4712 52.7228 32.3678 52.9069 32.1837C53.0909 31.9997 53.1943 31.75 53.1943 31.4897C53.1943 31.2294 53.0909 30.9798 52.9069 30.7958C52.7228 30.6117 52.4732 30.5083 52.2129 30.5083H43.3142L41.637 27.6032H60.4625L58.7853 30.5083H56.793C56.5327 30.5083 56.283 30.6117 56.099 30.7958C55.9149 30.9798 55.8115 31.2294 55.8115 31.4897C55.8115 31.75 55.9149 31.9997 56.099 32.1837C56.283 32.3678 56.5327 32.4712 56.793 32.4712H59.1251C59.6144 32.4712 60.0703 32.208 60.3151 31.7842L62.6724 27.7012C62.7925 27.4922 62.8558 27.2553 62.8558 27.0142C62.8557 26.7731 62.7925 26.5362 62.6722 26.3272C62.452 25.9458 62.0602 25.6963 61.6274 25.65L52.0311 7.41646V5.6263H55.7049C55.9652 5.6263 56.2148 5.5229 56.3989 5.33884C56.5829 5.15478 56.6863 4.90515 56.6863 4.64485C56.6863 4.38456 56.5829 4.13492 56.3989 3.95087C56.2148 3.76681 55.9652 3.66341 55.7049 3.66341H38.0396C37.5878 1.57214 35.7245 0 33.5 0C31.2755 0 29.4122 1.57214 28.9605 3.66341H11.2951C11.0348 3.66341 10.7852 3.76681 10.6011 3.95087C10.4171 4.13492 10.3137 4.38456 10.3137 4.64485C10.3137 4.90515 10.4171 5.15478 10.6011 5.33884C10.7852 5.5229 11.0348 5.6263 11.2951 5.6263H14.9689V7.41633L5.37257 25.6503C4.93982 25.6967 4.54816 25.946 4.32779 26.3275C4.20756 26.5365 4.14427 26.7734 4.14425 27.0145C4.14422 27.2556 4.20747 27.4925 4.32766 27.7015V27.7016L6.68496 31.7846C6.80587 31.9932 6.9794 32.1664 7.1882 32.2869C7.397 32.4074 7.63377 32.4711 7.87487 32.4715H24.0259C24.5152 32.4715 24.9711 32.2083 25.2158 31.7844L27.573 27.7016C27.6932 27.4926 27.7565 27.2557 27.7565 27.0146C27.7565 26.7735 27.6932 26.5366 27.573 26.3276C27.3529 25.9461 26.9611 25.6967 26.5282 25.6503L16.9318 7.41646V5.6263H28.9604C29.3438 7.40101 30.7437 8.80108 32.5184 9.18437V12.513H31.5327C30.6307 12.513 29.8969 13.2468 29.8969 14.1488V37.1646C27.9603 37.2196 26.4015 38.8109 26.4015 40.7606V42.7853H24.6424C22.8645 42.7853 21.418 44.2318 21.418 46.0096V48.6149H8.59525C4.29573 48.6149 0.797729 52.1128 0.797729 56.4124C0.797729 60.712 4.2956 64.2098 8.59525 64.2098H14.0988V65.6251C14.0988 66.1378 14.3809 66.6042 14.835 66.8422C15.057 66.959 15.3067 67.0126 15.5571 66.9972C15.8074 66.9818 16.0487 66.898 16.2547 66.7549L18.6539 65.0946L21.0529 66.7549C21.2824 66.9142 21.5551 66.9996 21.8344 66.9997C22.0526 66.9997 22.2714 66.9475 22.4726 66.8421C22.695 66.726 22.8812 66.5511 23.011 66.3365C23.1408 66.1219 23.2093 65.8758 23.2088 65.6249V64.2097H65.2208C65.4783 64.2055 65.7238 64.1003 65.9044 63.9167C66.085 63.7331 66.1863 63.4859 66.1863 63.2284C66.1863 62.9709 66.085 62.7237 65.9044 62.5401C65.7238 62.3565 65.4783 62.2513 65.2208 62.2471ZM50.0682 25.6405H42.6951L50.0682 11.6309V25.6405ZM52.0311 11.6309L59.4043 25.6405H52.0311V11.6309ZM14.9689 11.6309V25.6405H7.59574L14.9689 11.6309ZM23.6858 30.5084H8.21484L6.53761 27.6033H25.3632L23.6858 30.5084ZM24.305 25.6405H16.9319V11.6309L24.305 25.6405ZM30.818 4.64485C30.818 3.16601 32.0212 1.96289 33.5 1.96289C34.9789 1.96289 36.182 3.16601 36.182 4.64485C36.182 6.1237 34.9789 7.32682 33.5 7.32682C32.0212 7.32682 30.818 6.1237 30.818 4.64485ZM28.3644 40.7606C28.3644 39.8586 29.0982 39.1249 30.0002 39.1249H36.9997C37.9017 39.1249 38.6354 39.8586 38.6354 40.7606V42.7853H28.3644V40.7606ZM8.59525 62.2471C5.37807 62.2471 2.76062 59.6297 2.76062 56.4124C2.76062 53.1953 5.37794 50.5779 8.59525 50.5779H9.96142C9.45584 51.3187 9.18587 52.195 9.18686 53.0919V59.7331C9.18585 60.63 9.45588 61.5063 9.96155 62.2471H8.59525ZM21.2458 64.5016L19.2123 63.0944C19.0482 62.9808 18.8533 62.9199 18.6538 62.9199C18.4542 62.9199 18.2593 62.9808 18.0952 63.0944L16.0616 64.5016V54.9471H21.2458V64.5016ZM61.2682 52.9843H40.054C39.7937 52.9843 39.544 53.0877 39.36 53.2718C39.1759 53.4558 39.0725 53.7055 39.0725 53.9658C39.0725 54.2261 39.1759 54.4757 39.36 54.6597C39.544 54.8438 39.7937 54.9472 40.054 54.9472H61.2684V57.8779H40.054C39.7937 57.8779 39.544 57.9813 39.36 58.1654C39.1759 58.3494 39.0725 58.5991 39.0725 58.8594C39.0725 59.1197 39.1759 59.3693 39.36 59.5534C39.544 59.7374 39.7937 59.8408 40.054 59.8408H61.2684V62.2472H23.2087V54.9472H31.4901C31.7504 54.9472 32.0001 54.8438 32.1841 54.6597C32.3682 54.4757 32.4716 54.2261 32.4716 53.9658C32.4716 53.7055 32.3682 53.4558 32.1841 53.2718C32.0001 53.0877 31.7504 52.9843 31.4901 52.9843H13.6636C13.4033 52.9843 13.1536 53.0877 12.9696 53.2718C12.7855 53.4558 12.6821 53.7055 12.6821 53.9658C12.6821 54.2261 12.7855 54.4757 12.9696 54.6597C13.1536 54.8438 13.4033 54.9472 13.6636 54.9472H14.0988V62.2472H13.6636C12.2774 62.2472 11.1496 61.1194 11.1496 59.7333V53.092C11.1496 51.7058 12.2774 50.5781 13.6636 50.5781H29.4434C29.7037 50.5781 29.9533 50.4747 30.1374 50.2906C30.3214 50.1066 30.4248 49.8569 30.4248 49.5966C30.4248 49.3363 30.3214 49.0867 30.1374 48.9026C29.9533 48.7186 29.7037 48.6152 29.4434 48.6152H23.3809V46.0099C23.3809 45.3144 23.9468 44.7484 24.6424 44.7484H42.3576C43.0531 44.7484 43.6191 45.3144 43.6191 46.0099V48.6152H34.0234C33.7631 48.6152 33.5135 48.7186 33.3295 48.9026C33.1454 49.0867 33.042 49.3363 33.042 49.5966C33.042 49.8569 33.1454 50.1066 33.3295 50.2906C33.5135 50.4747 33.7631 50.5781 34.0234 50.5781H61.2682V52.9843Z" fill="#198754"/>
</g>
<defs>
<clipPath id="clip0_2823_12384">
<rect width="67" height="67" fill="white"/>
</clipPath>
</defs>
</svg>
