<svg width="63" height="64" viewBox="0 0 63 64" fill="none" xmlns="http://www.w3.org/2000/svg">
<path d="M36.0456 23.4096L2.93129 19.9518M36.0456 23.4096C36.0456 23.4096 35 26.0613 35 28C35 29.9387 36.0456 33.2892 36.0456 33.2892M36.0456 23.4096L62 19.9518M36.0456 33.2892L2.93129 28.8434M36.0456 33.2892L62 29.8313M36.0456 33.2892C36.0456 33.2892 35.0355 36.1159 35 38C34.9613 40.059 36.0456 43.1687 36.0456 43.1687M2.93129 28.8434C2.93129 28.8434 2.06757 25.8706 2.03631 23.9036C2.00204 21.7472 2.93129 19.9518 2.93129 19.9518M2.93129 28.8434C2.93129 28.8434 2.04029 31.9561 2.03631 34C2.03229 36.0671 2.93129 39.2169 2.93129 39.2169M2.93129 19.9518L28.6173 16.0409C28.7954 16.0137 28.9764 16.0108 29.1553 16.0322L62 19.9518M62 19.9518C62 19.9518 61.0834 22.8775 61.0834 24.8916C61.0834 26.9056 62 29.8313 62 29.8313M62 29.8313C62 29.8313 60.9729 32.575 61.0834 34.7711C61.1753 36.5984 62 39.7108 62 39.7108M62 39.7108L36.0456 43.1687M62 39.7108C62 39.7108 61.0834 44.0703 61.0834 47.1205C61.0834 50.1707 62 53.5422 62 53.5422L36.0456 57M36.0456 43.1687L2.93129 39.2169M36.0456 43.1687C36.0456 43.1687 35.0233 47.4849 35 50C34.9732 52.8999 36.0456 57 36.0456 57M36.0456 57L2.93129 53.0482C2.93129 53.0482 2.1477 49.1961 2.01463 46.6265C1.86363 43.7108 2.93129 39.2169 2.93129 39.2169" stroke="#198754" stroke-width="1.5"/>
<path d="M8.5 40C8 41 7 44.0243 7 46.5C7 48.9757 7.63845 53 8 53.5" stroke="#198754" stroke-width="1.5"/>
<path d="M12.5 40C12 41 11 44.0243 11 46.5C11 48.9757 11.6385 53.5 12 54" stroke="#198754" stroke-width="1.5"/>
<path d="M27.5 42C27 43 26 46.0243 26 48.5C26 50.9757 26.6385 55.5 27 56" stroke="#198754" stroke-width="1.5"/>
<path d="M31.5 43C31 44 30 47.0243 30 49.5C30 51.9757 30.6385 56 31 56.5" stroke="#198754" stroke-width="1.5"/>
<path d="M29.0003 33C28.5285 34.0757 28.0244 35.8956 28.0244 37.322C28.0244 39.3744 28.5997 41.2064 29.5003 42.4077" stroke="#198754" stroke-width="1.5"/>
<path d="M25.6885 32C24.6807 33.1893 24.0244 35.1299 24.0244 37.322C24.0244 39.2133 24.309 40.6138 25.0003 41.6756" stroke="#198754" stroke-width="1.5"/>
<path d="M9.1457 20C9.1457 20 8 22.1499 8 24.5C8 26.6123 9.1457 29 9.14571 30" stroke="#198754" stroke-width="1.5"/>
<path d="M12.7393 24.1233C12.8074 23.7147 12.5314 23.3283 12.1229 23.2602C11.7143 23.1921 11.3279 23.4681 11.2598 23.8767L12.7393 24.1233ZM13.6704 29.6646C13.1897 28.7032 12.2795 26.8824 12.7393 24.1233L11.2598 23.8767C10.7196 27.1176 11.8094 29.2968 12.3287 30.3354L13.6704 29.6646Z" fill="#198754"/>
<path d="M50 61V48L56 47V60L53 57L50 61Z" fill="white"/>
<path d="M47 48.5L50 48M59 46.5L56 47M50 48V61L53 57L56 60V47M50 48L56 47" stroke="#198754" stroke-width="1.5"/>
</svg>
