<svg width="67" height="67" viewBox="0 0 67 67" fill="none" xmlns="http://www.w3.org/2000/svg">
<path fill-rule="evenodd" clip-rule="evenodd" d="M8.50806 28.9404C8.50806 24.2898 12.3161 20.5197 17.0136 20.5197H54.6267C55.7313 20.5197 56.6267 21.4151 56.6267 22.5197V24.1335C56.6267 25.2381 55.7313 26.1335 54.6267 26.1335H52.6168V24.5295H53.0178L53.2616 24.5274L55.0228 24.5295V22.1236L17.0136 22.2924C13.3051 22.2924 10.112 25.2688 10.112 28.9404C10.112 32.612 13.3051 35.7572 17.0136 35.7572H55.0228V33.3513L53.4188 33.3564L52.6168 33.3671V31.7473H54.6267C55.7313 31.7473 56.6267 32.6428 56.6267 33.7473V35.3612C56.6267 36.4658 55.7313 37.3612 54.6267 37.3612H17.0136C12.3161 37.3612 8.50806 33.5911 8.50806 28.9404Z" fill="#198754"/>
<path fill-rule="evenodd" clip-rule="evenodd" d="M51.8148 26.1335H16.5278C15.2916 26.1335 14.1219 27.7166 14.1219 28.9404C14.1219 30.1643 15.2916 31.7473 16.5278 31.7473H51.8148V26.1335ZM16.5278 24.5295C14.3027 24.5295 12.5179 26.7375 12.5179 28.9404C12.5179 31.1434 14.3027 33.3564 16.5278 33.3564H53.4188V24.5295H16.5278Z" fill="#198754"/>
<path d="M10.0102 12.4484H54.3226C54.7938 12.4484 55.0747 12.7886 55.0747 13.0885V20.734C55.0747 21.0338 54.7938 21.3741 54.3226 21.3741H10.0102C9.539 21.3741 9.25806 21.0338 9.25806 20.734V13.0885C9.25806 12.7886 9.539 12.4484 10.0102 12.4484Z" stroke="#198754" stroke-width="1.5"/>
<path d="M13.2436 36.5079H58.3071C58.6196 36.5079 59.0847 36.8585 59.0847 37.5758V47.5738C59.0847 48.291 58.6196 48.6416 58.3071 48.6416H13.2436C12.9311 48.6416 12.4661 48.291 12.4661 47.5738V37.5758C12.4661 36.8585 12.9311 36.5079 13.2436 36.5079Z" stroke="#198754" stroke-width="1.5"/>
<rect x="25.75" y="39.75" width="20.5" height="5.5" rx="1.25" stroke="#198754" stroke-width="1.5"/>
<path d="M10.0356 48.5374H55.0991C55.4509 48.5374 55.8767 48.8854 55.8767 49.4982V58.908C55.8767 59.5209 55.4509 59.8689 55.0991 59.8689H10.0356C9.68385 59.8689 9.25806 59.5209 9.25806 58.908V49.4982C9.25806 48.8854 9.68385 48.5374 10.0356 48.5374Z" stroke="#198754" stroke-width="1.5"/>
<path d="M40.25 54C40.25 54.6674 39.6894 55.4736 38.3214 56.1576C36.9983 56.8192 35.118 57.25 33 57.25C30.882 57.25 29.0017 56.8192 27.6786 56.1576C26.3106 55.4736 25.75 54.6674 25.75 54C25.75 53.3326 26.3106 52.5264 27.6786 51.8424C29.0017 51.1808 30.882 50.75 33 50.75C35.118 50.75 36.9983 51.1808 38.3214 51.8424C39.6894 52.5264 40.25 53.3326 40.25 54Z" stroke="#198754" stroke-width="1.5"/>
<path d="M51.0129 49.3909V59.8166" stroke="#198754" stroke-width="1.5"/>
<path d="M14.1223 49.3909V59.8166" stroke="#198754" stroke-width="1.5"/>
</svg>
