<svg width="67" height="67" viewBox="0 0 67 67" fill="none" xmlns="http://www.w3.org/2000/svg">
<g clip-path="url(#clip0_2823_30711)">
<path d="M33.5 17.2699C35.2369 17.2699 36.6492 15.857 36.6492 14.1205C36.6492 12.3836 35.2365 10.9707 33.5 10.9707C31.7635 10.9707 30.3507 12.3836 30.3507 14.1205C30.3507 15.857 31.7635 17.2699 33.5 17.2699ZM33.5 12.9336C34.1543 12.9336 34.6863 13.4662 34.6863 14.1205C34.6863 14.7743 34.1543 15.307 33.5 15.307C32.8457 15.307 32.3136 14.7748 32.3136 14.1205C32.3136 13.4662 32.8457 12.9336 33.5 12.9336Z" fill="#198754"/>
<path d="M66.0186 60.4261H64.8322V57.0717C64.8322 56.53 64.3925 56.0903 63.8507 56.0903H60.4963V52.736C60.4963 52.4757 60.3929 52.226 60.2088 52.042C60.0248 51.8579 59.7751 51.7545 59.5148 51.7545H58.3289V30.2767H59.5148C59.7751 30.2767 60.0248 30.1733 60.2088 29.9893C60.3929 29.8052 60.4963 29.5556 60.4963 29.2953V25.941H63.8506C64.1109 25.941 64.3605 25.8375 64.5446 25.6535C64.7287 25.4694 64.8321 25.2198 64.8321 24.9595V20.6239C64.8321 20.3636 64.7287 20.1139 64.5446 19.9299C64.3605 19.7458 64.1109 19.6424 63.8506 19.6424H61.9894L34.0588 0.305339C33.8946 0.191724 33.6997 0.130859 33.5 0.130859C33.3003 0.130859 33.1054 0.191724 32.9412 0.305339L5.011 19.6424H3.14926C2.88897 19.6424 2.63933 19.7458 2.45528 19.9299C2.27122 20.1139 2.16782 20.3636 2.16782 20.6239V24.9595C2.16782 25.5014 2.6075 25.941 3.14926 25.941H6.50371V29.2953C6.50371 29.837 6.9434 30.2767 7.48516 30.2767H8.67166V51.7547H7.48516C7.22486 51.7547 6.97523 51.8581 6.79117 52.0421C6.60711 52.2262 6.50371 52.4758 6.50371 52.7361V56.0903H3.14926C2.6075 56.0903 2.16782 56.53 2.16782 57.0717V60.4261H0.981445C0.852546 60.426 0.724899 60.4514 0.605801 60.5007C0.486704 60.55 0.37849 60.6223 0.287344 60.7134C0.196198 60.8046 0.123907 60.9128 0.0746031 61.0319C0.0252991 61.151 -5.15123e-05 61.2786 7.85857e-08 61.4075V65.7427C7.85857e-08 66.285 0.439033 66.7242 0.981445 66.7242H66.0186C66.561 66.7242 67 66.285 67 65.7427V61.4074C67 61.1471 66.8966 60.8974 66.7125 60.7134C66.5285 60.5293 66.2788 60.4259 66.0186 60.4259V60.4261ZM58.5334 56.0903H49.6572V53.7174H58.5334V56.0903ZM51.8244 51.7545V30.2767H56.3656V51.7547L51.8244 51.7545ZM58.5335 28.3138H49.6571V25.941H58.5334L58.5335 28.3138ZM48.6756 30.2767H49.8615V51.7547H48.6756C48.5467 51.7546 48.4191 51.78 48.3 51.8293C48.1809 51.8786 48.0727 51.9509 47.9815 52.042C47.8904 52.1332 47.8181 52.2414 47.7688 52.3605C47.7195 52.4796 47.6941 52.6072 47.6942 52.7361V56.0903H39.9014V52.736C39.9014 52.4757 39.798 52.226 39.6139 52.042C39.4299 51.8579 39.1802 51.7545 38.9199 51.7545H37.7336V30.2767H38.9199C39.4617 30.2767 39.9014 29.837 39.9014 29.2953V25.941H47.6941V29.2953C47.6941 29.5556 47.7975 29.8052 47.9815 29.9893C48.1656 30.1733 48.4152 30.2767 48.6755 30.2767H48.6756ZM29.062 25.941H37.9385V28.3138H29.062V25.941ZM31.2293 30.2767H35.7707V51.7547H31.2293V30.2767ZM37.9385 53.7176V56.0903H29.062V53.7174L37.9385 53.7176ZM4.13071 21.6052H21.2581C21.5184 21.6052 21.768 21.5018 21.9521 21.3177C22.1361 21.1337 22.2395 20.884 22.2395 20.6237C22.2395 20.0813 21.8005 19.6423 21.2581 19.6423H8.4594L33.5 2.30618L58.5412 19.6424H25.1839C24.9236 19.6424 24.674 19.7458 24.4899 19.9299C24.3058 20.1139 24.2024 20.3636 24.2024 20.6239C24.2024 20.8842 24.3058 21.1338 24.4899 21.3179C24.674 21.5019 24.9236 21.6053 25.1839 21.6053H62.8693V23.9781H4.13071V21.6052ZM8.4666 25.941H17.3436V28.3138H8.4666V25.941ZM15.1758 30.2767V51.7547H10.6344V30.2767H15.1758ZM8.4666 53.7176H17.3436V56.0903H8.4666V53.7176ZM18.325 51.7547H17.1387V30.2767H18.325C18.8668 30.2767 19.3065 29.837 19.3065 29.2953V25.941H27.0991V29.2953C27.0991 29.5556 27.2025 29.8052 27.3866 29.9893C27.5707 30.1733 27.8203 30.2767 28.0806 30.2767H29.2666V51.7547H28.0807C27.9518 51.7546 27.8242 51.78 27.7051 51.8293C27.586 51.8786 27.4778 51.9509 27.3866 52.042C27.2955 52.1332 27.2232 52.2414 27.1739 52.3605C27.1246 52.4796 27.0992 52.6072 27.0993 52.7361V56.0903H19.3066V52.736C19.3066 52.4757 19.2032 52.226 19.0191 52.042C18.8351 51.8579 18.5854 51.7545 18.3252 51.7545L18.325 51.7547ZM4.13071 58.0531H62.8693V60.4259H4.13071V58.0531ZM65.0371 64.7618H1.96289V62.389H65.0371V64.7618Z" fill="#198754"/>
</g>
<defs>
<clipPath id="clip0_2823_30711">
<rect width="67" height="67" fill="white"/>
</clipPath>
</defs>
</svg>
