<svg width="63" height="63" viewBox="0 0 63 63" fill="none" xmlns="http://www.w3.org/2000/svg">
<g clip-path="url(#clip0_3007_14689)">
<path d="M60.6109 22.8247V0.922848C60.6109 0.678093 60.5137 0.443363 60.3406 0.270296C60.1676 0.0972283 59.9328 0 59.6881 0C59.4433 0 59.2086 0.0972283 59.0355 0.270296C58.8625 0.443363 58.7652 0.678093 58.7652 0.922848V1.19404H53.2382C51.9026 1.19404 50.6468 1.71416 49.7021 2.65866C49.1062 3.2547 48.3139 3.58286 47.4712 3.58286H39.6049C39.3224 3.5819 39.0453 3.66011 38.805 3.80863C38.5647 3.95716 38.3709 4.17004 38.2454 4.42315C38.1182 4.67541 38.0643 4.95824 38.0897 5.2396C38.1151 5.52095 38.2187 5.78957 38.389 6.015L40.8403 9.28348L38.389 12.552C38.2187 12.7774 38.115 13.046 38.0896 13.3274C38.0642 13.6087 38.1182 13.8916 38.2454 14.1438C38.3709 14.3969 38.5647 14.6098 38.805 14.7583C39.0453 14.9068 39.3224 14.9851 39.6049 14.9841H47.4709C48.8067 14.9841 50.0625 14.464 51.007 13.5195C51.6031 12.9234 52.3954 12.5953 53.2381 12.5953H58.7651V22.8246C57.6796 23.14 56.8225 23.9971 56.5071 25.0826H45.9081C45.5076 23.7041 44.2332 22.6938 42.7272 22.6938C40.9012 22.6938 39.4156 24.1794 39.4156 26.0055C39.4156 27.5116 40.4259 28.7858 41.8044 29.1864V37.1577C40.7189 37.473 39.8617 38.3302 39.5464 39.4157H30.3808C29.9803 38.0372 28.7059 37.0269 27.1999 37.0269C25.3739 37.0269 23.8882 38.5124 23.8882 40.3385C23.8882 41.8446 24.8986 43.1189 26.277 43.5194V51.4907C25.1915 51.8061 24.3344 52.6632 24.019 53.7488H14.7604C15.0729 52.9336 15.5646 52.195 16.2068 51.5994C18.1696 49.779 19.2953 47.2003 19.2953 44.5247C19.2953 39.2368 14.9938 34.9089 9.70651 34.8771C7.13103 34.8606 4.69742 35.8614 2.85554 37.6923C1.01415 39.5229 0 41.9492 0 44.5247C0.000310317 45.8981 0.293711 47.2557 0.860602 48.5067C1.42749 49.7576 2.25482 50.8732 3.28731 51.7789C4.59037 52.9221 5.33775 54.5488 5.33775 56.2416V56.329C5.33775 57.1376 5.83252 57.8327 6.53524 58.1275V59.682C6.53524 61.5115 8.02361 63 9.85306 63C11.6826 63 13.171 61.5115 13.171 59.682V58.1275C13.8737 57.8327 14.3685 57.1375 14.3685 56.329V55.8709C14.3685 55.7785 14.3706 55.6864 14.3749 55.5946H24.0191C24.4197 56.9731 25.6941 57.9834 27.2 57.9834C29.026 57.9834 30.5117 56.4979 30.5117 54.6717C30.5117 53.1656 29.5014 51.8914 28.1229 51.4909V43.5195C29.2084 43.2042 30.0655 42.347 30.3809 41.2615H39.5465C39.947 42.64 41.2214 43.6503 42.7274 43.6503C44.5534 43.6503 46.039 42.1648 46.039 40.3387C46.039 38.8326 45.0287 37.5583 43.6502 37.1578V29.1865C44.7357 28.8711 45.5929 28.014 45.9082 26.9285H56.5072C56.9077 28.3069 58.1821 29.3173 59.6881 29.3173C61.5141 29.3173 62.9997 27.8317 62.9997 26.0056C62.9997 24.4995 61.9894 23.2253 60.6109 22.8247ZM11.3252 59.6818C11.3252 60.4937 10.6648 61.1541 9.85294 61.1541C9.0412 61.1541 8.38081 60.4937 8.38081 59.6818V58.2781H11.3252V59.6818ZM8.77431 45.2944C8.77431 44.8128 9.16609 44.4209 9.6477 44.4209C10.1293 44.4209 10.5212 44.8128 10.5212 45.2944C10.5212 45.776 10.1293 46.1679 9.6477 46.1679C9.16609 46.1679 8.77431 45.776 8.77431 45.2944ZM12.5228 55.8708V56.3289C12.5228 56.3564 12.5118 56.3827 12.4924 56.4021C12.473 56.4216 12.4467 56.4325 12.4192 56.4325H10.5707V47.8525C11.6173 47.4739 12.367 46.4702 12.367 45.2946C12.367 43.7952 11.1471 42.5754 9.64782 42.5754C8.1485 42.5754 6.92874 43.7952 6.92874 45.2946C6.92874 46.4702 7.67846 47.4739 8.72497 47.8525V56.4325H7.28693C7.25946 56.4325 7.23313 56.4216 7.21371 56.4021C7.19428 56.3827 7.18336 56.3564 7.18333 56.3289V56.2414C7.18333 54.0174 6.20683 51.8852 4.50448 50.3914C3.66942 49.659 3.00028 48.7568 2.54177 47.7451C2.08327 46.7334 1.84596 45.6355 1.8457 44.5247C1.8457 42.4442 2.66642 40.4828 4.15688 39.0014C5.63626 37.5307 7.5847 36.7227 9.64819 36.7227L9.69556 36.7228C13.9712 36.7484 17.4497 40.2484 17.4497 44.5247C17.4497 46.6885 16.5393 48.7739 14.9519 50.2461C13.4081 51.6778 12.5227 53.7278 12.5228 55.8708ZM28.666 54.6715C28.666 55.4798 28.0083 56.1375 27.2 56.1375C26.3944 56.1375 25.7386 55.4843 25.734 54.6797V54.6632C25.7386 53.8586 26.3944 53.2055 27.2 53.2055C28.0083 53.2055 28.666 53.8632 28.666 54.6715ZM27.2 41.8045C26.3917 41.8045 25.734 41.1468 25.734 40.3385C25.734 39.5303 26.3917 38.8726 27.2 38.8726C28.0083 38.8726 28.666 39.5303 28.666 40.3385C28.666 41.1468 28.0083 41.8045 27.2 41.8045ZM44.1933 40.3385C44.1933 41.1468 43.5357 41.8045 42.7274 41.8045C41.9191 41.8045 41.2614 41.1468 41.2614 40.3385C41.2614 39.5303 41.9191 38.8726 42.7274 38.8726C43.5357 38.8726 44.1933 39.5303 44.1933 40.3385ZM42.7274 27.4716C41.9191 27.4716 41.2614 26.8139 41.2614 26.0056C41.2614 25.1973 41.9191 24.5396 42.7274 24.5396C43.5357 24.5396 44.1933 25.1973 44.1933 26.0056C44.1933 26.8139 43.5357 27.4716 42.7274 27.4716ZM53.2381 10.7497C51.9024 10.7497 50.6466 11.2698 49.702 12.2143C49.1061 12.8104 48.3138 13.1385 47.4711 13.1385H40.2561L42.7319 9.83744C42.8517 9.67769 42.9165 9.4834 42.9165 9.28373C42.9165 9.08405 42.8517 8.88976 42.7319 8.73002L40.2561 5.42893H47.4711C48.8068 5.42893 50.0627 4.90881 51.0072 3.96431C51.6032 3.36827 52.3955 3.04011 53.2382 3.04011H58.7652V10.7497H53.2381ZM59.6881 27.4716C58.8798 27.4716 58.2221 26.8139 58.2221 26.0056C58.2221 25.1973 58.8798 24.5396 59.6881 24.5396C60.4964 24.5396 61.1541 25.1973 61.1541 26.0056C61.1541 26.8139 60.4964 27.4716 59.6881 27.4716Z" fill="#198754"/>
<path d="M9.64748 38.124C6.11825 38.124 3.24707 40.9953 3.24707 44.5246C3.24707 44.7693 3.3443 45.004 3.51737 45.1771C3.69044 45.3502 3.92517 45.4474 4.16992 45.4474C4.41468 45.4474 4.64941 45.3502 4.82248 45.1771C4.99554 45.004 5.09277 44.7693 5.09277 44.5246C5.09277 42.0129 7.13597 39.9697 9.64748 39.9697C10.1571 39.9697 10.5703 39.5567 10.5703 39.0469C10.5703 38.5371 10.1571 38.124 9.64748 38.124Z" fill="#198754"/>
</g>
<defs>
<clipPath id="clip0_3007_14689">
<rect width="63" height="63" fill="white"/>
</clipPath>
</defs>
</svg>
