<svg xmlns="http://www.w3.org/2000/svg" width="28" height="28" viewBox="0 0 28 28" fill="none">
     <path fill-rule="evenodd" clip-rule="evenodd" 
     d="M14 28C21.732 28 28 21.732 28 14C28 6.268 21.732 0 
     14 0C6.268 0 0 6.268 0 14C0 21.732 6.268 28 14 28ZM15.3746 
     10.5298C14.9719 16.2718 16.1516 15.465 18.5797 10.5298C18.8366 
     9.79808 19.0705 9.61104 19.648 9.67556H22.9502C23.576 9.68992 
     23.6666 9.9392 23.4358 10.7192C22.5754 12.3538 21.987 13.1073 
     21.0642 14.2892C20.9833 14.3927 20.8999 14.4995 20.8135 
     14.6105C20.2261 15.3932 20.251 15.8111 21.1049 16.5087C22.1212 
     17.3493 22.6108 17.9397 23.4358 19.0713C23.7708 19.7892 23.5854 
     20.0487 22.9502 20.4H19.4538C18.6989 20.1614 18.0666 19.6396 16.5401 
     17.9324C16.0214 17.6845 15.7807 17.6884 15.5689 18.312L15.3746 
     19.6407C15.2222 20.1678 15.0221 20.2865 14.5977 20.4L13 20.3466C8.28916 
     19.3734 6.4394 16.3189 3.62287 10.1498C3.54475 9.68416 3.64969 
     9.53864 4.2056 9.58028H7.02216C7.68692 9.59624 7.89156 9.79656 
     8.09052 10.3389C8.98572 12.5413 9.46768 13.1479 10.3243 14.1353C11.1013 
     15.0309 11.3517 14.404 11.2956 13.4709C11.2956 13.4709 11.3927 11.0046 
     11.2956 10.7192C11.2458 10.573 11.0686 10.5017 10.8554 10.4159C10.6524 
     10.3342 10.4167 10.2394 10.2272 10.0542C9.83872 9.67456 10.6 9.2 11.0042 
     9.2H14.5977C15.2456 9.2642 15.3124 9.69112 15.3746 10.5298Z" fill="#F8F7F7"/>
</svg>